PathFileType	4	(X/Y/Z)	D:\MotionData\Pi-Spi Study\20230118_AMCsubject1\Trimmed_left_abd_18001_rotated.trc
DataRate	CameraRate	NumFrames	NumMarkers	Units	OrigDataRate	OrigDataStartFrame	OrigNumFrames
200.00	200.00	       5	35	mm	200.00	26	       200
Frame#	Time	C7			Sternum			r_AMC1			r_AMC2			r_AMC3			l_AMC1			l_AMC2			l_AMC3			PX			T8			r_humerous			r_elbow_medial			r_elbow_lateral			r_forearm			r_wrist_radius			r_wrist_ulna			r_MCP_1			r_MCP_3			l_humerous			l_elbow_medial			l_elbow_lateral			l_forearm			l_wrist_radius			l_wrist_ulna			l_MCP_1			l_MCP_3			r_ASIS			r_PSIS			l_ASIS			l_PSIS			r_IC			l_IC			TS			AI			AA			
		X1	Y1	Z1	X2	Y2	Z2	X3	Y3	Z3	X4	Y4	Z4	X5	Y5	Z5	X6	Y6	Z6	X7	Y7	Z7	X8	Y8	Z8	X9	Y9	Z9	X10	Y10	Z10	X11	Y11	Z11	X12	Y12	Z12	X13	Y13	Z13	X14	Y14	Z14	X15	Y15	Z15	X16	Y16	Z16	X17	Y17	Z17	X18	Y18	Z18	X19	Y19	Z19	X20	Y20	Z20	X21	Y21	Z21	X22	Y22	Z22	X23	Y23	Z23	X24	Y24	Z24	X25	Y25	Z25	X26	Y26	Z26	X27	Y27	Z27	X28	Y28	Z28	X29	Y29	Z29	X30	Y30	Z30	X31	Y31	Z31	X32	Y32	Z32	X33	Y33	Z33	X34	Y34	Z34	X35	Y35	Z35	

26	0.125	198.7702	1369.0601	-209.8656	338.4656	1326.6565	-198.5961	194.0127	1310.8375	-60.6101	226.2772	1313.6882	-21.8562	245.62	1350.6558	-40.6315	184.8881	1349.6694	-329.5182	216.9191	1385.15	-346.5279	214.9797	1401.9255	-297.0973	413.5208	1137.8081	-208.2039	178.4907	1188.7463	-225.6492	308.9432	1134.7043	-6.0183	248.246	991.2761	-38.9287	258.9073	1000.9622	26.2643	315.3005	847.1467	50.6913	366.9294	786.1888	34.6636	318.5248	777.8899	50.2671	390.6112	703.612	47.3865	341.4242	698.7039	59.8321	300.4402	1484.4611	-352.9312	365.168	1568.3816	-457.2831	320.431	1594.4524	-452.8107	347.2795	1751.1703	-463.7709	385.9133	1821.9832	-449.1628	377.5022	1817.0633	-493.3566	377.4658	1892.5076	-452.0845	375.2426	1888.2567	-495.3247	373.1248	905.8035	-82.2276	187.9381	929.6808	-170.6513	381.0289	893.3895	-339.071	191.8387	923.9214	-272.4269	292.6607	969.2241	-56.4627	297.513	942.0282	-379.6491	126.827	1290.2765	-293.3125	153.0418	1210.7562	-349.8196	161.1678	1379.4404	-394.249
27	0.13	198.8041	1369.0653	-209.8381	338.4603	1326.6397	-198.5585	194.0281	1310.8241	-60.6033	226.2626	1313.7184	-21.804	245.6247	1350.6381	-40.6069	184.8856	1349.6606	-329.4712	216.9476	1385.126	-346.4955	215.0101	1401.9617	-297.0757	413.5948	1137.7864	-208.2417	178.5148	1188.7473	-225.6349	308.9287	1134.7024	-5.9955	248.2498	991.2719	-38.922	258.8575	1000.9037	26.2642	315.2701	847.1723	50.7173	366.8935	786.1914	34.6641	318.5428	777.8874	50.2829	390.6101	703.571	47.3999	341.4273	698.6846	59.7993	300.4736	1484.4314	-352.9163	365.2102	1568.3577	-457.305	320.4213	1594.4514	-452.8126	347.2252	1751.1527	-463.792	385.8408	1822.014	-449.177	377.4246	1817.0618	-493.3896	377.3384	1892.516	-452.1254	375.1526	1888.272	-495.3368	373.1659	905.7997	-82.2618	187.9538	929.6801	-170.6408	380.9971	893.3801	-339.1039	191.8875	923.9596	-272.4165	292.7064	969.2775	-56.4675	297.5342	941.9893	-379.6273	126.85	1290.2977	-293.2598	153.0624	1210.7616	-349.7632	161.1876	1379.4423	-394.1933
28	0.135	198.8377	1369.0638	-209.8006	338.4931	1326.6503	-198.5371	194.0352	1310.8364	-60.573	226.2528	1313.7163	-21.7708	245.6271	1350.6263	-40.5598	184.9309	1349.6616	-329.4829	216.9913	1385.1329	-346.4912	215.0326	1401.9468	-297.0545	413.5734	1137.8127	-208.1672	178.5529	1188.7499	-225.6249	308.9359	1134.6622	-5.9684	248.2544	991.2517	-38.9348	258.8838	1000.9287	26.25	315.2255	847.1768	50.7341	366.9085	786.1768	34.6469	318.4599	777.9393	50.3021	390.6047	703.5455	47.4311	341.4383	698.6575	59.8794	300.4835	1484.4324	-352.9035	365.2118	1568.3375	-457.2785	320.4124	1594.4334	-452.803	347.1568	1751.1721	-463.8035	385.7793	1821.9839	-449.1901	377.3575	1817.0759	-493.4005	377.2357	1892.5454	-452.1355	375.0527	1888.2887	-495.3704	373.2365	905.8101	-82.2819	188.0041	929.6804	-170.6453	381.0567	893.3685	-339.0989	191.9121	923.9713	-272.3817	292.694	969.3049	-56.4738	297.6582	941.899	-379.6688	126.8774	1290.3246	-293.2162	153.0728	1210.7985	-349.6239	161.2373	1379.4434	-394.186
29	0.14	198.8614	1369.0565	-209.7708	338.5489	1326.6515	-198.5181	194.0394	1310.8219	-60.5619	226.2609	1313.6594	-21.7434	245.6506	1350.5935	-40.5513	184.9642	1349.6617	-329.4253	217.4458	1384.9841	-346.6009	215.0469	1401.9568	-296.9918	413.6359	1137.7941	-208.174	178.5662	1188.7562	-225.599	308.9395	1134.6847	-5.9425	248.2327	991.2651	-38.8846	258.8475	1000.9652	26.3168	315.2599	847.1214	50.7333	366.8898	786.1567	34.7025	318.4873	777.9106	50.301	390.5973	703.5344	47.4468	341.3771	698.7573	59.8647	300.4684	1484.4548	-352.869	365.1904	1568.3611	-457.2498	320.4061	1594.4341	-452.8068	347.0889	1751.1679	-463.8287	385.6762	1822.0094	-449.2158	377.297	1817.0911	-493.4183	377.1357	1892.5593	-452.1887	374.971	1888.2997	-495.392	373.2707	905.7585	-82.2887	188.0241	929.6793	-170.6077	381.0532	893.3505	-339.1212	191.939	923.9637	-272.3734	292.8108	969.2488	-56.5079	297.6677	941.9316	-379.6605	126.9145	1290.345	-293.1853	153.1009	1210.7716	-349.6196	161.254	1379.4567	-394.1144
30	0.145	198.9024	1369.0592	-209.7364	338.5657	1326.6412	-198.4692	194.0618	1310.8175	-60.5642	226.283	1313.673	-21.752	245.6329	1350.6755	-40.5512	184.9879	1349.6641	-329.4118	217.4784	1384.9684	-346.5627	215.0715	1401.9418	-296.9778	413.6553	1137.8016	-208.1531	178.6199	1188.7533	-225.5709	308.9002	1134.7288	-5.9005	248.2651	991.2374	-38.8877	258.8334	1000.9095	26.3003	315.2524	847.1299	50.7399	366.8288	786.1795	34.7601	318.4896	777.8645	50.2838	390.591	703.5332	47.4388	341.4216	698.6352	59.8391	300.4597	1484.4373	-352.8401	365.18	1568.3833	-457.2344	320.3615	1594.4298	-452.8056	347.0332	1751.1694	-463.832	385.6068	1822.0789	-449.2518	377.2321	1817.0389	-493.4798	377.0536	1892.5787	-452.2087	374.9009	1888.2301	-495.4598	373.2915	905.7922	-82.3059	188.072	929.691	-170.5989	381.0595	893.357	-339.1414	191.9555	923.9851	-272.3471	292.8377	969.2505	-56.4684	297.6189	941.9495	-379.6292	126.9344	1290.3726	-293.1737	153.1244	1210.8385	-349.5281	161.2917	1379.4795	-394.0974
